P3
1 2
255
127 191 63 63 127 191 
